<?xml version="1.0" standalone="no"?>
<!DOCTYPE svg PUBLIC "-//W3C//DTD SVG 20010904//EN"
 "http://www.w3.org/TR/2001/REC-SVG-20010904/DTD/svg10.dtd">
<svg version="1.0" xmlns="http://www.w3.org/2000/svg"
 width="101.000000pt" height="101.000000pt" viewBox="0 0 101.000000 101.000000"
 preserveAspectRatio="xMidYMid meet">
<metadata>
Created by potrace 1.11, written by Peter Selinger 2001-2013
</metadata>
<g transform="translate(0.000000,101.000000) scale(0.100000,-0.100000)"
fill="#000000" stroke="none">
<path d="M365 985 c-48 -47 -26 -114 38 -115 34 0 35 13 2 28 -14 7 -28 19
-31 27 -7 18 12 45 32 45 23 0 93 -70 87 -86 -3 -9 2 -14 17 -14 15 0 20 5 17
14 -6 16 62 86 85 86 21 0 42 -26 34 -45 -3 -9 -19 -22 -36 -29 -32 -13 -30
-26 4 -26 36 0 66 28 66 61 0 32 -38 79 -63 79 -22 0 -61 -35 -82 -74 -11 -20
-22 -36 -25 -36 -4 0 -16 18 -29 40 -23 41 -56 70 -79 70 -7 0 -24 -11 -37
-25z"/>
<path d="M272 838 c-17 -17 -16 -122 2 -137 9 -8 46 -11 103 -9 l88 3 0 75 0
75 -90 3 c-62 2 -94 -1 -103 -10z"/>
<path d="M557 844 c-4 -4 -7 -40 -7 -81 l0 -74 98 3 97 3 0 75 0 75 -90 3
c-50 1 -94 0 -98 -4z"/>
<path d="M287 663 c-4 -3 -7 -152 -7 -330 l0 -323 60 0 60 0 0 250 0 250 35
39 c28 31 35 47 35 80 l0 41 -88 0 c-49 0 -92 -3 -95 -7z"/>
<path d="M550 628 c0 -34 6 -48 33 -76 l32 -33 0 -255 0 -255 60 3 60 3 0 325
0 325 -92 3 -93 3 0 -43z"/>
</g>
</svg>
